<svg id="jack" viewBox="0 -5 105 390" xmlns="http://www.w3.org/2000/svg">
    <path stroke="black"
          stroke-width="10"
          fill="white"
          d="
     m 88,86
     c 0.024,-0.652 -0.039,-1.307 -0.171,-1.96 -0.002,-0.009 -0.003,-0.017 -0.005,-0.026 -0.148,-0.717 -0.392,-1.423 -0.744,-2.108 -0.084,-0.166 -0.174,-0.329 -0.268,-0.489 -0.076,-0.127 -0.146,-0.254 -0.23,-0.378 -0.202,-0.304 -0.425,-0.592 -0.663,-0.867 -0.027,-0.031 -0.046,-0.066 -0.074,-0.097 -10.105,-11.367 -10.105,-28.494 0,-39.861 0.047,-0.053 0.08,-0.11 0.125,-0.164 0.194,-0.231 0.38,-0.468 0.548,-0.717 0.128,-0.186 0.24,-0.375 0.351,-0.565 0.065,-0.115 0.13,-0.229 0.19,-0.347 0.139,-0.267 0.262,-0.536 0.369,-0.81 0.016,-0.042 0.031,-0.084 0.046,-0.126 0.119,-0.32 0.222,-0.642 0.3,-0.968 0.005,-0.022 0.009,-0.045 0.014,-0.067 0.076,-0.333 0.138,-0.667 0.173,-1.003 0.011,-0.104 0.01,-0.208 0.018,-0.313 0.016,-0.254 0.036,-0.507 0.029,-0.76 -0.005,-0.303 -0.037,-0.607 -0.076,-0.911 -0.008,-0.06 -0.008,-0.121 -0.018,-0.181 -0.103,-0.685 -0.304,-1.367 -0.589,-2.036 -0.033,-0.078 -0.058,-0.158 -0.093,-0.234 -0.083,-0.18 -0.186,-0.356 -0.284,-0.533 -0.108,-0.199 -0.213,-0.399 -0.336,-0.589 -0.017,-0.026 -0.028,-0.053 -0.045,-0.079
     l -17.068,-25.599
     c -1.583,-2.374 -4.247,-3.8 -7.1,-3.8
     h -20
     c -2.853,0 -5.518,1.426 -7.1,3.8
     l -17.067,25.6
     c -0.017,0.026 -0.028,0.053 -0.045,0.079 -0.123,0.19 -0.228,0.39 -0.336,0.589 -0.097,0.177 -0.2,0.353 -0.284,0.533 -0.035,0.076 -0.06,0.156 -0.093,0.234 -0.286,0.67 -0.486,1.352 -0.589,2.037 -0.009,0.06 -0.01,0.121 -0.018,0.181 -0.039,0.304 -0.071,0.608 -0.076,0.911 -0.007,0.253 0.013,0.507 0.029,0.762 0.008,0.103 0.007,0.207 0.018,0.31 0.034,0.336 0.096,0.67 0.173,1.003 0.005,0.022 0.008,0.045 0.014,0.067 0.078,0.326 0.18,0.648 0.3,0.968 0.016,0.042 0.03,0.084 0.046,0.126 0.107,0.274 0.231,0.543 0.369,0.81 0.06,0.118 0.125,0.232 0.19,0.347 0.111,0.191 0.223,0.38 0.351,0.565 0.169,0.25 0.354,0.486 0.548,0.717 0.045,0.053 0.078,0.111 0.125,0.164 10.105,11.367 10.105,28.494 0,39.861 -0.028,0.031 -0.047,0.065 -0.074,0.097 -0.238,0.275 -0.461,0.562 -0.663,0.866 -0.084,0.125 -0.155,0.253 -0.231,0.38 -0.094,0.159 -0.183,0.321 -0.267,0.487 -0.352,0.685 -0.596,1.391 -0.744,2.108 -0.002,0.009 -0.003,0.017 -0.005,0.026 -0.132,0.652 -0.195,1.308 -0.171,1.96
     v 150
     h 71
     z"
    />
    <line x1="16" y1="35" x2="90" y2="35" stroke="black" stroke-width="15"/>
    <line x1="16" y1="85" x2="90" y2="85" stroke="black" stroke-width="15"/>
    <line x1="16" y1="135" x2="90" y2="135" stroke="black" stroke-width="15"/>
    <rect x="5" y="230" width="95" height="150" fill="black" stroke="black" stroke-width="10"/>
</svg>
