<svg xmlns="http://www.w3.org/2000/svg" viewBox="-90 -35 180 70">

    <!--    wires    -->
    <line x1="-75" y1="20" x2="-45" y2="20" stroke="black" stroke-width="4"/>
    <line x1="-75" y1="-20" x2="-45" y2="-20" stroke="black" stroke-width="4"/>
    <line x1="-45" y1="-22" x2="-45" y2="22" stroke="black" stroke-width="4"/>

    <line x1="-45" x2="45" stroke="black" stroke-width="4"/>

    <line x1="75" y1="20" x2="45" y2="20" stroke="black" stroke-width="4"/>
    <line x1="75" y1="-20" x2="45" y2="-20" stroke="black" stroke-width="4"/>
    <line x1="45" y1="-22" x2="45" y2="22" stroke="black" stroke-width="4"/>

    <!--    side a    -->
    <use href="#jack" height="30" width="30" x="-90" y="-35"/>
    <text x="-60" y="-5" font-size="10">2x</text>
    <use href="#shuko-m" height="30" width="30" x="-90" y="5"/>
    <text x="-60" y="35" font-size="10">2x</text>

    <!--    side b    -->
    <use href="#xlr-f" height="30" width="30" x="-90" y="-35" transform="scale(-1,1)"/>
    <text x="60" y="-5" font-size="10" text-anchor="end">2x</text>
    <use href="#iec-c13" height="30" width="30" x="-90" y="5" transform="scale(-1,1)"/>
    <text x="60" y="35" font-size="10" text-anchor="end">2x</text>

    <defs>
        <svg id="iec-c13" xmlns="http://www.w3.org/2000/svg" viewBox="-120 -84 240 168">
            <path fill="white"
                  stroke-width="10"
                  stroke="black"
                  d="M0,-79 h60 l55,55 v103 h-230 v-103 l55,-55 z"/>

            <use href="#hole" y="-12.5"/>
            <use href="#hole" x="-70" y="20"/>
            <use href="#hole" x="70" y="20"/>

            <defs>
                <path id="hole"
                      fill="black"
                      stroke-width="10"
                      stroke="black"
                      d="M0,-25 h12.5 v50 h-25 v-50 h12.5 z"/>
            </defs>
        </svg>

        <svg id="shuko-m" xmlns="http://www.w3.org/2000/svg" viewBox="-19 -16 42 32">
            <rect x="0" y="-16" width="19" height="32" fill="black" stroke-width="1" stroke="black"/>
            <rect x="-19" y="-12.3" width="19" height="4.8" fill="white" stroke-width="1" stroke="black"/>
            <rect x="-19" y="7.5" width="19" height="4.8" fill="white" stroke-width="1" stroke="black"/>
            <path d="m19,-16 l4,9 v14 l-4,9 z" fill="black" stroke="black"/>
        </svg>

        <svg id="xlr-f" xmlns="http://www.w3.org/2000/svg" viewBox="-120 -120 240 240">
            <circle r="114"
                    stroke="black"
                    stroke-width="12"
                    fill="black"/>

            <circle r="24" cx="-60" fill="white"/>
            <circle r="24" cx="60" fill="white"/>
            <circle r="24" cy="60" fill="white"/>
        </svg>

        <svg id="jack"
             viewBox="-195 -65 390 105"
             version="1.1"
             xmlns="http://www.w3.org/2000/svg">
            <path stroke="#000000"
                  stroke-width="10"
                  fill="#ffffff"
                  d="m -104.412,-47.999994 c -0.652,-0.024 -1.307,0.039 -1.96,0.171 -0.009,0.002 -0.017,0.003 -0.026,0.005 -0.717,0.148 -1.423,0.392 -2.108,0.744 -0.166,0.084 -0.329,0.174 -0.489,0.268 -0.127,0.076 -0.254,0.146 -0.378,0.23 -0.304,0.202 -0.592,0.425 -0.867,0.663 -0.031,0.027 -0.066,0.046 -0.097,0.074 -11.367,10.105 -28.494,10.105 -39.861,0 -0.053,-0.047 -0.11,-0.08 -0.164,-0.125 -0.231,-0.194 -0.468,-0.38 -0.717,-0.548 -0.186,-0.128 -0.375,-0.24 -0.565,-0.351 -0.115,-0.065 -0.229,-0.13 -0.347,-0.19 -0.267,-0.139 -0.536,-0.262 -0.81,-0.369 -0.042,-0.016 -0.084,-0.031 -0.126,-0.046 -0.32,-0.119 -0.642,-0.222 -0.968,-0.3 -0.022,-0.005 -0.045,-0.009 -0.067,-0.014 -0.333,-0.076 -0.667,-0.138 -1.003,-0.173 -0.104,-0.011 -0.208,-0.01 -0.313,-0.018 -0.254,-0.016 -0.507,-0.036 -0.76,-0.029 -0.303,0.005 -0.607,0.037 -0.911,0.076 -0.06,0.008 -0.121,0.008 -0.181,0.018 -0.685,0.103 -1.367,0.304 -2.036,0.589 -0.078,0.033 -0.158,0.058 -0.234,0.093 -0.18,0.083 -0.356,0.186 -0.533,0.284 -0.199,0.108 -0.399,0.213 -0.589,0.336 -0.026,0.017 -0.053,0.028 -0.079,0.045 l -25.599,17.068 c -2.374,1.583 -3.8,4.247 -3.8,7.1 v 20.0000003 c 0,2.853 1.426,5.5179997 3.8,7.0999997 l 25.6,17.067 c 0.026,0.017 0.053,0.028 0.079,0.045 0.19,0.123 0.39,0.228 0.589,0.336 0.177,0.097 0.353,0.2 0.533,0.284 0.076,0.035 0.156,0.06 0.234,0.093 0.67,0.286 1.352,0.486 2.037,0.589 0.06,0.009 0.121,0.01 0.181,0.018 0.304,0.039 0.608,0.071 0.911,0.076 0.253,0.007 0.507,-0.013 0.762,-0.029 0.103,-0.008 0.207,-0.007 0.31,-0.018 0.336,-0.034 0.67,-0.096 1.003,-0.173 0.022,-0.005 0.045,-0.008 0.067,-0.014 0.326,-0.078 0.648,-0.18 0.968,-0.3 0.042,-0.016 0.084,-0.03 0.126,-0.046 0.274,-0.107 0.543,-0.231 0.81,-0.369 0.118,-0.06 0.232,-0.125 0.347,-0.19 0.191,-0.111 0.38,-0.223 0.565,-0.351 0.25,-0.169 0.486,-0.354 0.717,-0.548 0.053,-0.045 0.111,-0.078 0.164,-0.125 11.367,-10.105 28.494,-10.105 39.861,0 0.031,0.028 0.065,0.047 0.097,0.074 0.275,0.238 0.562,0.461 0.866,0.663 0.125,0.084 0.253,0.155 0.38,0.231 0.159,0.094 0.321,0.183 0.487,0.267 0.685,0.352 1.391,0.596 2.108,0.744 0.009,0.002 0.017,0.003 0.026,0.005 0.652,0.132 1.308,0.195 1.96,0.171 h 150 v -71 z"/>
            <line x1="-155"
                  y1="24"
                  x2="-155"
                  y2="-50"
                  stroke="#000000"
                  stroke-width="15"/>
            <line x1="-105"
                  y1="24"
                  x2="-105"
                  y2="-50"
                  stroke="#000000"
                  stroke-width="15"/>
            <line x1="-55"
                  y1="24"
                  x2="-55"
                  y2="-50"
                  stroke="#000000"
                  stroke-width="15"/>
            <rect x="-35"
                  y="39"
                  width="95"
                  height="150"
                  fill="#000000"
                  stroke="#000000"
                  stroke-width="10"
                  transform="rotate(-90)"/>
        </svg>
    </defs>
</svg>
