<svg id="diagram" xmlns="http://www.w3.org/2000/svg" viewBox="-90.000000 -15.000000 180.000000 30.000000">
  <line x1="-45" x2="45" stroke="#000000" stroke-width="4"></line>
  <line x1="-45" x2="-45" y1="15" y2="-15" stroke="#000000" stroke-width="4"></line>
  <line x1="45" x2="45" y1="15" y2="-15" stroke="#000000" stroke-width="4"></line>
  <g transform="translate(-60.000000)">
    <line x1="-15" x2="15" stroke="#0000ff" stroke-width="4"></line>
    <line x1="-15" x2="15" y1="30" y2="30" stroke="#0000ff" stroke-width="4"></line>
  </g>
  <g transform="translate(45.000000)">
    <line x2="30" stroke="#0000ff" stroke-width="4"></line>
    <line x2="30" y1="30" y2="30" stroke="#0000ff" stroke-width="4"></line>
  </g>
  <g transform="translate(-60.000000 -15.000000)">
    <use href="#xlr-3p-f" width="30" height="30" transform="scale(-1.000000 1.000000)"></use>
    <use href="#shuko-f" width="30" height="30" y="30" transform="scale(-1.000000 1.000000)"></use>
  </g>
  <g transform="translate(90.000000 -15.000000)">
    <use href="#xlr-3p-m" width="30" height="30" transform="scale(-1.000000 1.000000)"></use>
    <use href="#shuko-m" width="30" height="30" y="30" transform="scale(-1.000000 1.000000)"></use>
  </g>
  <defs>
    <svg id="xlr-3p-f" xmlns="http://www.w3.org/2000/svg" viewBox="-120.000000 -120.000000 240.000000 240.000000">
      <circle r="114" fill="#000000" stroke="#000000" stroke-width="12"></circle>
      <circle cx="-60" r="24" fill="#ffffff"></circle>
      <circle cx="60" r="24" fill="#ffffff"></circle>
      <circle cy="60" r="24" fill="#ffffff"></circle>
    </svg>
    <svg id="shuko-f" xmlns="http://www.w3.org/2000/svg" viewBox="-60.000000 -60.000000 120.000000 120.000000">
      <circle r="114" fill="#ffffff" stroke="#000000" stroke-width="12"></circle>
      <rect y="-115" x="-15" width="30" height="30"></rect>
      <rect y="85" x="-15" width="30" height="30"></rect>
      <circle cx="-55" r="30"></circle>
      <circle cx="55" r="30"></circle>
    </svg>
    <svg id="xlr-3p-m" xmlns="http://www.w3.org/2000/svg" viewBox="-120.000000 -120.000000 240.000000 240.000000">
      <circle r="114" fill="#ffffff" stroke="#000000" stroke-width="12"></circle>
      <circle cx="-60" r="24"></circle>
      <circle cx="60" r="24"></circle>
      <circle cy="60" r="24"></circle>
    </svg>
    <svg id="shuko-m" xmlns="http://www.w3.org/2000/svg" viewBox="-19.000000 -16.000000 38.000000 32.000000">
      <rect y="-16" width="19" height="32" fill="#000000" stroke="#000000" stroke-width="1"></rect>
      <rect y="-12.3" x="-19" width="19" height="4.8" fill="#ffffff" stroke="#000000" stroke-width="1"></rect>
      <rect y="7.5" x="-19" width="19" height="4.8" fill="#ffffff" stroke="#000000" stroke-width="1"></rect>
      <path d="m19,-16 l4,9 v14 l-4,9 z" stroke="#000000" fill="#000000"></path>
    </svg>
  </defs>
</svg>